PathFileType	4	(X/Y/Z)	 s11c0202.trc
DataRate	CameraRate	NumFrames	NumMarkers	Units	OrigDataRate	OrigDataStartFrame	OrigNumFrames
200	200	4	48	mm	200	751	2000
Frame#	Time	racr			lacr			c7			jug			rlel			rdr			llel			ldr			s2			lic			ric			lasi			rasi			rpsi			lpsi			rgt			lgt			rth1			rth2			rth3			rth4			rlfc			rmfc			rsh1			rsh2			rsh3			rsh4			rlmal			rcal			rtoe			rmt5			lth1			lth2			lth4			lth3			llfc			lmfc			llmal			lcal			lmt5			lsh1			lsh2			lsh3			lsh4			ltoe			SBIKE			LBIKE			RBIKE			
		X1	Y1	Z1	X2	Y2	Z2	X3	Y3	Z3	X4	Y4	Z4	X5	Y5	Z5	X6	Y6	Z6	X7	Y7	Z7	X8	Y8	Z8	X9	Y9	Z9	X10	Y10	Z10	X11	Y11	Z11	X12	Y12	Z12	X13	Y13	Z13	X14	Y14	Z14	X15	Y15	Z15	X16	Y16	Z16	X17	Y17	Z17	X18	Y18	Z18	X19	Y19	Z19	X20	Y20	Z20	X21	Y21	Z21	X22	Y22	Z22	X23	Y23	Z23	X24	Y24	Z24	X25	Y25	Z25	X26	Y26	Z26	X27	Y27	Z27	X28	Y28	Z28	X29	Y29	Z29	X30	Y30	Z30	X31	Y31	Z31	X32	Y32	Z32	X33	Y33	Z33	X34	Y34	Z34	X35	Y35	Z35	X36	Y36	Z36	X37	Y37	Z37	X38	Y38	Z38	X39	Y39	Z39	X40	Y40	Z40	X41	Y41	Z41	X42	Y42	Z42	X43	Y43	Z43	X44	Y44	Z44	X45	Y45	Z45	X46	Y46	Z46	X47	Y47	Z47	X48	Y48	Z48	
751	3.7550	479.407318	1344.935733	-42.490082	534.914286	1330.810695	-316.831258	452.379583	1427.663494	-192.226258	434.051994	1240.689467	-193.908762	525.262046	1105.157208	81.305375	752.149881	971.863293	-35.897714	612.617974	1176.556652	-562.009696	795.246095	961.975233	-427.262473	-120.140961	1205.824154	-293.674661	111.957758	1211.417275	-478.398206	77.962653	1221.391396	-72.214176	139.126463	1138.387115	-457.062641	109.415530	1167.908719	-119.669903	-77.207234	1284.611353	-246.533694	-74.626287	1269.658111	-335.484203	49.250899	1102.526290	-56.127900	21.067694	1065.746241	-483.186588	183.006750	1039.343596	-55.977276	271.070854	1025.678244	-62.705014	339.456823	970.833708	-72.291323	284.823616	1058.358300	-74.273707	438.106883	916.009622	-86.157536	443.067798	892.535652	-215.533884	398.600660	758.007596	-67.594819	391.424291	671.048323	-81.915744	344.765586	597.544524	-79.715961	413.425842	666.015633	-114.972716	287.840438	471.778823	-86.744657	220.928447	449.425076	-131.659519	507.538454	428.490582	-131.440764	439.862983	398.001005	-60.781307	134.953595	962.456686	-491.694175	207.685064	918.205677	-482.424575	234.279402	942.476303	-475.181155	249.998562	839.015521	-471.600614	328.283089	732.630762	-440.342282	333.129419	732.976805	-312.007919	50.365248	406.187024	-414.869959	-18.177820	394.923733	-378.638553	132.315411	250.436443	-442.462846	253.860295	633.393326	-457.934275	219.535201	557.316759	-438.114587	150.352379	502.252702	-436.338736	242.436585	544.232976	-410.133525	224.777593	219.408683	-376.130090	-205.254397	952.938526	-265.085426	1.497100	82.095973	-461.293600	-15.290525	81.182973	-62.792267	
752	3.7600	479.733247	1345.425445	-42.929546	535.246858	1329.252341	-315.990614	452.391913	1427.024957	-192.327018	434.206778	1239.993079	-193.162419	525.223690	1106.028093	81.555201	751.042976	971.361230	-36.651587	612.870054	1176.900258	-561.777458	794.056012	961.644685	-426.903755	-120.427166	1204.285491	-294.605808	111.976039	1209.745823	-478.454360	77.666536	1219.941918	-72.135540	138.908412	1136.858775	-456.999986	110.122998	1165.980936	-118.609281	-77.602373	1282.860673	-247.644534	-74.514214	1267.923366	-336.316553	49.846338	1099.851269	-56.765150	22.444065	1064.673485	-483.094420	183.032036	1034.464016	-56.298365	270.729281	1019.059845	-63.239368	337.989803	962.676190	-73.138041	285.459923	1051.621508	-74.151604	435.220466	905.662939	-86.870844	439.838801	882.745320	-215.592419	396.214990	748.084310	-67.889402	390.166066	660.918686	-82.033452	344.539133	586.797886	-78.975917	412.278273	656.166342	-115.170621	289.770397	460.869686	-86.707288	222.769061	437.655753	-131.448517	509.962081	420.949677	-131.173882	442.825546	389.469903	-60.591922	137.716430	963.800227	-491.072243	210.889878	920.245277	-481.079178	237.151586	944.790376	-473.574177	254.062810	841.549396	-470.206905	332.234614	735.931061	-439.011298	335.536080	736.057096	-310.707867	48.567206	415.442866	-413.850838	-20.231243	404.619522	-378.040002	129.138650	259.167220	-442.367802	256.334858	638.088135	-456.690482	220.495034	562.717799	-436.738295	150.372753	508.981626	-435.295137	243.188004	549.117082	-408.847689	221.168833	226.926809	-375.717486	-205.228832	952.921173	-264.999430	1.497685	82.078222	-461.272705	-15.296145	81.148963	-62.764793	
753	3.7650	480.245756	1346.092021	-43.403758	535.630463	1328.180379	-315.414456	452.400882	1426.721900	-192.629573	434.560263	1239.616143	-192.690049	525.457447	1106.954251	82.009103	750.038683	970.993777	-37.110094	612.976600	1176.965191	-561.610486	792.988049	961.298889	-426.477097	-121.209347	1203.070379	-294.855206	112.090641	1208.264430	-478.484415	77.357026	1218.723229	-72.010679	138.750365	1135.599500	-456.722763	110.892410	1164.059615	-117.055308	-78.103617	1281.364364	-248.483880	-74.385608	1266.372828	-337.065119	50.575510	1097.087944	-57.191089	23.725156	1063.762896	-482.870300	183.140159	1029.456743	-56.737058	270.350863	1012.339771	-63.561163	336.345473	954.559244	-73.944188	285.939181	1044.393451	-73.863551	432.179751	895.697418	-87.816920	436.723401	871.763208	-213.698524	393.387927	738.611576	-68.138230	388.984375	651.262418	-82.177593	344.142004	576.505763	-78.689631	410.878983	646.754379	-115.122396	291.333944	449.918584	-86.688201	224.626499	425.767337	-131.310193	512.097482	413.179627	-130.908614	445.382808	380.633613	-60.515536	140.190766	964.954204	-490.115794	213.845674	922.370411	-479.801860	239.783415	947.274123	-472.078243	257.978358	844.154954	-469.072237	336.134173	739.283922	-437.520326	338.150897	739.253772	-309.371640	47.101774	424.512111	-412.664571	-22.008401	414.282814	-377.284351	126.438783	268.190680	-442.297010	258.602074	642.977869	-455.436090	221.435681	568.124713	-435.590225	150.339061	515.569969	-434.068108	243.777198	553.772502	-407.061606	217.936764	234.805202	-375.369020	-205.189481	952.893187	-264.871491	1.509967	82.062906	-461.289285	-15.271086	81.121729	-62.750148	
754	3.7700	480.933567	1347.001667	-44.267454	535.934102	1327.438940	-315.137329	452.479895	1426.640021	-193.067200	434.971729	1239.464501	-192.424790	525.762581	1107.824830	82.342467	749.081215	970.625791	-37.370253	612.949812	1176.837451	-561.511115	791.988591	960.932835	-425.857066	-120.544869	1201.751155	-295.732824	112.147246	1206.796107	-478.032835	77.050613	1217.761523	-71.915289	138.632346	1134.589286	-456.129597	111.761510	1162.266241	-115.449341	-78.395316	1280.114161	-249.054250	-74.277983	1265.138038	-337.653969	51.310123	1094.306927	-57.516155	24.853624	1063.005197	-482.612328	183.153735	1024.506265	-56.902009	269.967807	1005.450878	-63.843735	334.688516	946.242571	-74.759255	286.231380	1037.337175	-73.785604	429.054835	885.706217	-88.628121	433.118212	861.453298	-213.406288	390.324484	729.467632	-68.312078	387.275539	642.044329	-82.129350	343.691161	566.692908	-78.564705	409.394898	637.814097	-114.948092	292.554043	438.920124	-86.529003	225.643525	414.724453	-130.335252	513.639877	405.275773	-130.915403	447.495594	371.721730	-60.441688	142.314982	966.178056	-489.102380	216.531990	924.612091	-478.618173	242.142311	949.810661	-470.716624	261.697335	847.011966	-468.114694	339.930457	742.870477	-436.006700	341.088312	742.516559	-308.066664	46.176506	433.401979	-411.151107	-23.371053	424.049988	-376.506256	124.010792	277.075713	-442.202920	260.568371	647.950061	-453.893737	222.356935	573.750159	-434.504938	150.372924	522.327547	-433.020717	244.488686	558.924591	-406.065151	215.191664	242.780071	-375.155643	-205.172244	952.880896	-264.826050	1.518677	82.040455	-461.251130	-15.286030	81.093444	-62.730978	
